<mxfile host="app.diagrams.net" agent="Mozilla/5.0 (X11; Linux x86_64) AppleWebKit/537.36 (KHTML, like Gecko) Chrome/136.0.0.0 Safari/537.36" version="27.1.6">
  <diagram name="Pagina-1" id="xMiM0zeFLV_TA9WDBtDz">
    <mxGraphModel dx="1397" dy="665" grid="1" gridSize="10" guides="1" tooltips="1" connect="1" arrows="1" fold="1" page="1" pageScale="1" pageWidth="827" pageHeight="1169" math="0" shadow="0">
      <root>
        <mxCell id="0" />
        <mxCell id="1" parent="0" />
        <mxCell id="TEf1efMseGjoCDdHLFGE-25" style="edgeStyle=orthogonalEdgeStyle;rounded=0;orthogonalLoop=1;jettySize=auto;html=1;" edge="1" parent="1" source="TEf1efMseGjoCDdHLFGE-2" target="TEf1efMseGjoCDdHLFGE-26">
          <mxGeometry relative="1" as="geometry">
            <mxPoint x="430" y="560" as="targetPoint" />
            <Array as="points">
              <mxPoint x="431" y="660" />
            </Array>
          </mxGeometry>
        </mxCell>
        <mxCell id="TEf1efMseGjoCDdHLFGE-27" value="TRUE" style="edgeLabel;html=1;align=center;verticalAlign=middle;resizable=0;points=[];" vertex="1" connectable="0" parent="TEf1efMseGjoCDdHLFGE-25">
          <mxGeometry x="-0.5122" y="4" relative="1" as="geometry">
            <mxPoint y="-6" as="offset" />
          </mxGeometry>
        </mxCell>
        <mxCell id="TEf1efMseGjoCDdHLFGE-28" style="edgeStyle=orthogonalEdgeStyle;rounded=0;orthogonalLoop=1;jettySize=auto;html=1;" edge="1" parent="1" source="TEf1efMseGjoCDdHLFGE-2">
          <mxGeometry relative="1" as="geometry">
            <mxPoint x="70" y="710" as="targetPoint" />
          </mxGeometry>
        </mxCell>
        <mxCell id="TEf1efMseGjoCDdHLFGE-30" value="FALSE" style="edgeLabel;html=1;align=center;verticalAlign=middle;resizable=0;points=[];" vertex="1" connectable="0" parent="TEf1efMseGjoCDdHLFGE-28">
          <mxGeometry x="-0.301" y="5" relative="1" as="geometry">
            <mxPoint y="-15" as="offset" />
          </mxGeometry>
        </mxCell>
        <mxCell id="TEf1efMseGjoCDdHLFGE-2" value="time &amp;lt;= 3" style="rhombus;whiteSpace=wrap;html=1;" vertex="1" parent="1">
          <mxGeometry x="175" y="620" width="130" height="80" as="geometry" />
        </mxCell>
        <mxCell id="TEf1efMseGjoCDdHLFGE-48" style="edgeStyle=orthogonalEdgeStyle;rounded=0;orthogonalLoop=1;jettySize=auto;html=1;" edge="1" parent="1" source="TEf1efMseGjoCDdHLFGE-5" target="TEf1efMseGjoCDdHLFGE-47">
          <mxGeometry relative="1" as="geometry" />
        </mxCell>
        <mxCell id="TEf1efMseGjoCDdHLFGE-5" value="read time" style="shape=parallelogram;perimeter=parallelogramPerimeter;whiteSpace=wrap;html=1;fixedSize=1;" vertex="1" parent="1">
          <mxGeometry x="180" y="270" width="120" height="60" as="geometry" />
        </mxCell>
        <mxCell id="TEf1efMseGjoCDdHLFGE-7" value="START" style="ellipse;whiteSpace=wrap;html=1;" vertex="1" parent="1">
          <mxGeometry x="180" y="140" width="120" height="80" as="geometry" />
        </mxCell>
        <mxCell id="TEf1efMseGjoCDdHLFGE-17" style="edgeStyle=orthogonalEdgeStyle;rounded=0;orthogonalLoop=1;jettySize=auto;html=1;entryX=0.5;entryY=0;entryDx=0;entryDy=0;" edge="1" parent="1">
          <mxGeometry relative="1" as="geometry">
            <mxPoint x="240" y="220" as="sourcePoint" />
            <mxPoint x="240" y="270" as="targetPoint" />
          </mxGeometry>
        </mxCell>
        <mxCell id="TEf1efMseGjoCDdHLFGE-74" style="edgeStyle=orthogonalEdgeStyle;rounded=0;orthogonalLoop=1;jettySize=auto;html=1;entryX=0.5;entryY=0;entryDx=0;entryDy=0;" edge="1" parent="1" source="TEf1efMseGjoCDdHLFGE-26" target="TEf1efMseGjoCDdHLFGE-42">
          <mxGeometry relative="1" as="geometry" />
        </mxCell>
        <mxCell id="TEf1efMseGjoCDdHLFGE-26" value="Write 2" style="rounded=0;whiteSpace=wrap;html=1;" vertex="1" parent="1">
          <mxGeometry x="360" y="710" width="120" height="60" as="geometry" />
        </mxCell>
        <mxCell id="TEf1efMseGjoCDdHLFGE-32" style="edgeStyle=orthogonalEdgeStyle;rounded=0;orthogonalLoop=1;jettySize=auto;html=1;" edge="1" parent="1" source="TEf1efMseGjoCDdHLFGE-29" target="TEf1efMseGjoCDdHLFGE-31">
          <mxGeometry relative="1" as="geometry" />
        </mxCell>
        <mxCell id="TEf1efMseGjoCDdHLFGE-29" value="result = 2 + (time-3)*0.5" style="rounded=0;whiteSpace=wrap;html=1;" vertex="1" parent="1">
          <mxGeometry x="10" y="710" width="120" height="60" as="geometry" />
        </mxCell>
        <mxCell id="TEf1efMseGjoCDdHLFGE-33" style="edgeStyle=orthogonalEdgeStyle;rounded=0;orthogonalLoop=1;jettySize=auto;html=1;" edge="1" parent="1" source="TEf1efMseGjoCDdHLFGE-31">
          <mxGeometry relative="1" as="geometry">
            <mxPoint x="-50" y="940" as="targetPoint" />
          </mxGeometry>
        </mxCell>
        <mxCell id="TEf1efMseGjoCDdHLFGE-40" value="FALSE" style="edgeLabel;html=1;align=center;verticalAlign=middle;resizable=0;points=[];" vertex="1" connectable="0" parent="TEf1efMseGjoCDdHLFGE-33">
          <mxGeometry x="-0.5578" y="3" relative="1" as="geometry">
            <mxPoint x="1" y="-13" as="offset" />
          </mxGeometry>
        </mxCell>
        <mxCell id="TEf1efMseGjoCDdHLFGE-34" style="edgeStyle=orthogonalEdgeStyle;rounded=0;orthogonalLoop=1;jettySize=auto;html=1;" edge="1" parent="1" source="TEf1efMseGjoCDdHLFGE-31">
          <mxGeometry relative="1" as="geometry">
            <mxPoint x="200" y="940" as="targetPoint" />
            <Array as="points">
              <mxPoint x="200" y="860" />
              <mxPoint x="200" y="940" />
            </Array>
          </mxGeometry>
        </mxCell>
        <mxCell id="TEf1efMseGjoCDdHLFGE-39" value="TRUE" style="edgeLabel;html=1;align=center;verticalAlign=middle;resizable=0;points=[];" vertex="1" connectable="0" parent="TEf1efMseGjoCDdHLFGE-34">
          <mxGeometry x="-0.3968" y="-2" relative="1" as="geometry">
            <mxPoint x="-10" y="-12" as="offset" />
          </mxGeometry>
        </mxCell>
        <mxCell id="TEf1efMseGjoCDdHLFGE-31" value="result &amp;gt; 10" style="rhombus;whiteSpace=wrap;html=1;" vertex="1" parent="1">
          <mxGeometry x="17.5" y="820" width="105" height="80" as="geometry" />
        </mxCell>
        <mxCell id="TEf1efMseGjoCDdHLFGE-61" style="edgeStyle=orthogonalEdgeStyle;rounded=0;orthogonalLoop=1;jettySize=auto;html=1;entryX=0;entryY=0.5;entryDx=0;entryDy=0;" edge="1" parent="1" source="TEf1efMseGjoCDdHLFGE-37" target="TEf1efMseGjoCDdHLFGE-60">
          <mxGeometry relative="1" as="geometry">
            <Array as="points">
              <mxPoint x="-50" y="1040" />
            </Array>
          </mxGeometry>
        </mxCell>
        <mxCell id="TEf1efMseGjoCDdHLFGE-37" value="write result" style="shape=parallelogram;perimeter=parallelogramPerimeter;whiteSpace=wrap;html=1;fixedSize=1;" vertex="1" parent="1">
          <mxGeometry x="-110" y="920" width="120" height="60" as="geometry" />
        </mxCell>
        <mxCell id="TEf1efMseGjoCDdHLFGE-64" style="edgeStyle=orthogonalEdgeStyle;rounded=0;orthogonalLoop=1;jettySize=auto;html=1;" edge="1" parent="1" source="TEf1efMseGjoCDdHLFGE-38" target="TEf1efMseGjoCDdHLFGE-60">
          <mxGeometry relative="1" as="geometry" />
        </mxCell>
        <mxCell id="TEf1efMseGjoCDdHLFGE-38" value="write 10" style="shape=parallelogram;perimeter=parallelogramPerimeter;whiteSpace=wrap;html=1;fixedSize=1;" vertex="1" parent="1">
          <mxGeometry x="140" y="920" width="120" height="60" as="geometry" />
        </mxCell>
        <mxCell id="TEf1efMseGjoCDdHLFGE-41" value="END" style="ellipse;whiteSpace=wrap;html=1;" vertex="1" parent="1">
          <mxGeometry x="354" y="1000" width="120" height="80" as="geometry" />
        </mxCell>
        <mxCell id="TEf1efMseGjoCDdHLFGE-73" style="edgeStyle=orthogonalEdgeStyle;rounded=0;orthogonalLoop=1;jettySize=auto;html=1;" edge="1" parent="1" source="TEf1efMseGjoCDdHLFGE-42" target="TEf1efMseGjoCDdHLFGE-41">
          <mxGeometry relative="1" as="geometry" />
        </mxCell>
        <mxCell id="TEf1efMseGjoCDdHLFGE-42" value="" style="ellipse;whiteSpace=wrap;html=1;aspect=fixed;" vertex="1" parent="1">
          <mxGeometry x="310" y="1030" width="20" height="20" as="geometry" />
        </mxCell>
        <mxCell id="TEf1efMseGjoCDdHLFGE-54" style="edgeStyle=orthogonalEdgeStyle;rounded=0;orthogonalLoop=1;jettySize=auto;html=1;entryX=1;entryY=0.5;entryDx=0;entryDy=0;" edge="1" parent="1" source="TEf1efMseGjoCDdHLFGE-45" target="TEf1efMseGjoCDdHLFGE-51">
          <mxGeometry relative="1" as="geometry" />
        </mxCell>
        <mxCell id="TEf1efMseGjoCDdHLFGE-45" value="time = (time // 1) + 1" style="rounded=0;whiteSpace=wrap;html=1;" vertex="1" parent="1">
          <mxGeometry x="330" y="520" width="120" height="60" as="geometry" />
        </mxCell>
        <mxCell id="TEf1efMseGjoCDdHLFGE-49" style="edgeStyle=orthogonalEdgeStyle;rounded=0;orthogonalLoop=1;jettySize=auto;html=1;entryX=0.5;entryY=0;entryDx=0;entryDy=0;" edge="1" parent="1" source="TEf1efMseGjoCDdHLFGE-47" target="TEf1efMseGjoCDdHLFGE-45">
          <mxGeometry relative="1" as="geometry" />
        </mxCell>
        <mxCell id="TEf1efMseGjoCDdHLFGE-66" value="FALSE" style="edgeLabel;html=1;align=center;verticalAlign=middle;resizable=0;points=[];" vertex="1" connectable="0" parent="TEf1efMseGjoCDdHLFGE-49">
          <mxGeometry x="-0.54" relative="1" as="geometry">
            <mxPoint x="4" y="-10" as="offset" />
          </mxGeometry>
        </mxCell>
        <mxCell id="TEf1efMseGjoCDdHLFGE-50" style="edgeStyle=orthogonalEdgeStyle;rounded=0;orthogonalLoop=1;jettySize=auto;html=1;entryX=0.5;entryY=0;entryDx=0;entryDy=0;" edge="1" parent="1" source="TEf1efMseGjoCDdHLFGE-47" target="TEf1efMseGjoCDdHLFGE-51">
          <mxGeometry relative="1" as="geometry">
            <mxPoint x="240" y="520" as="targetPoint" />
          </mxGeometry>
        </mxCell>
        <mxCell id="TEf1efMseGjoCDdHLFGE-67" value="TRUE" style="edgeLabel;html=1;align=center;verticalAlign=middle;resizable=0;points=[];" vertex="1" connectable="0" parent="TEf1efMseGjoCDdHLFGE-50">
          <mxGeometry x="-0.1778" relative="1" as="geometry">
            <mxPoint as="offset" />
          </mxGeometry>
        </mxCell>
        <mxCell id="TEf1efMseGjoCDdHLFGE-47" value="time % 1 == 0" style="rhombus;whiteSpace=wrap;html=1;" vertex="1" parent="1">
          <mxGeometry x="180" y="370" width="120" height="80" as="geometry" />
        </mxCell>
        <mxCell id="TEf1efMseGjoCDdHLFGE-55" style="edgeStyle=orthogonalEdgeStyle;rounded=0;orthogonalLoop=1;jettySize=auto;html=1;" edge="1" parent="1" target="TEf1efMseGjoCDdHLFGE-2">
          <mxGeometry relative="1" as="geometry">
            <mxPoint x="240" y="540" as="sourcePoint" />
          </mxGeometry>
        </mxCell>
        <mxCell id="TEf1efMseGjoCDdHLFGE-51" value="" style="ellipse;whiteSpace=wrap;html=1;aspect=fixed;" vertex="1" parent="1">
          <mxGeometry x="230" y="540" width="20" height="20" as="geometry" />
        </mxCell>
        <mxCell id="TEf1efMseGjoCDdHLFGE-72" style="edgeStyle=orthogonalEdgeStyle;rounded=0;orthogonalLoop=1;jettySize=auto;html=1;entryX=0;entryY=0.5;entryDx=0;entryDy=0;" edge="1" parent="1" source="TEf1efMseGjoCDdHLFGE-60" target="TEf1efMseGjoCDdHLFGE-42">
          <mxGeometry relative="1" as="geometry" />
        </mxCell>
        <mxCell id="TEf1efMseGjoCDdHLFGE-60" value="" style="ellipse;whiteSpace=wrap;html=1;aspect=fixed;" vertex="1" parent="1">
          <mxGeometry x="190" y="1030" width="20" height="20" as="geometry" />
        </mxCell>
      </root>
    </mxGraphModel>
  </diagram>
</mxfile>
